<svg width="327" height="232" viewBox="0 0 327 232" fill="none" xmlns="http://www.w3.org/2000/svg">
<g opacity="0.24">
<path d="M115.47 205.522L106.253 220.271C103.135 225.259 106.721 231.729 112.604 231.729H243.426C246.089 231.729 248.553 230.315 249.895 228.014L258.498 213.265C261.41 208.272 257.809 202.002 252.029 202.002H121.821C119.239 202.002 116.839 203.332 115.47 205.522Z" fill="#D4DDE1"/>
<path d="M81.1249 231.729H63.7293C57.9699 231.729 54.3658 225.5 57.2367 220.507L129.804 94.3033C132.673 89.3131 139.865 89.2907 142.765 94.2629L151.409 109.08C152.759 111.394 152.77 114.253 151.438 116.577L87.6233 227.963C86.2887 230.292 83.8095 231.729 81.1249 231.729Z" fill="#505050" fill-opacity="0.3"/>
<path d="M321.012 168.468L313.023 183.216C311.714 185.633 309.186 187.138 306.437 187.138H138.916C133.24 187.138 129.627 181.072 132.33 176.082L140.319 161.333C141.628 158.917 144.156 157.411 146.904 157.411H314.426C320.101 157.411 323.715 163.477 321.012 168.468Z" fill="#505050" fill-opacity="0.3"/>
<path d="M31.6403 231.729H13.0091C7.2355 231.729 3.6332 225.472 6.53231 220.479L104.98 50.931C107.871 45.9514 115.066 45.9614 117.944 50.9491L127.875 68.1631C129.223 70.5004 129.21 73.3824 127.84 75.7074L38.0931 228.042C36.7468 230.327 34.2925 231.729 31.6403 231.729Z" fill="#D4DDE1"/>
<path d="M193.841 17.4453H176.421C170.667 17.4453 167.062 23.6644 169.922 28.6573L234.422 141.258C235.756 143.588 238.236 145.025 240.921 145.025H258.34C264.094 145.025 267.699 138.806 264.839 133.813L200.34 21.2122C199.005 18.8825 196.526 17.4453 193.841 17.4453Z" fill="#D4DDE1"/>
<path d="M135.593 0.104462H114.584C108.809 0.104462 105.207 6.36432 108.109 11.3572L183.631 141.299C184.971 143.606 187.438 145.025 190.106 145.025H208.893C214.625 145.025 218.232 138.848 215.416 133.856L142.116 3.91416C140.788 1.56038 138.295 0.104462 135.593 0.104462Z" fill="#505050" fill-opacity="0.3"/>
</g>
</svg>
