<svg width="59" height="48" viewBox="0 0 59 48" fill="none" xmlns="http://www.w3.org/2000/svg">
<path d="M35.4237 34.1412L34.4125 39.7406C34.3508 40.0828 34.6894 40.3593 35.0123 40.2304L60.5503 30.0319C60.6965 29.9735 60.8007 29.8418 60.8239 29.6861L61.6484 24.1612C61.6988 23.8234 61.3637 23.5582 61.0465 23.6848L35.6951 33.8088C35.5534 33.8654 35.4508 33.991 35.4237 34.1412Z" fill="white"/>
<path d="M31.6017 41.5923L26.3635 43.6842C26.0474 43.8104 25.713 43.5475 25.7611 43.2105L30.2025 12.1201C30.2506 11.7833 30.6448 11.6244 30.913 11.8338L35.3201 15.2738C35.4449 15.3712 35.5082 15.5279 35.4861 15.6846L31.8758 41.2432C31.8536 41.4003 31.7491 41.5335 31.6017 41.5923Z" fill="white"/>
<path d="M69.5473 11.7704L68.9096 17.2207C68.8907 17.3821 68.785 17.5201 68.6341 17.5804L36.6453 30.3549C36.3339 30.4793 36.0026 30.2256 36.0416 29.8924L36.6793 24.4421C36.6982 24.2808 36.8039 24.1427 36.9548 24.0825L68.9436 11.3079C69.2551 11.1835 69.5863 11.4373 69.5473 11.7704Z" fill="white"/>
<path d="M22.7665 45.1208L17.3074 47.3009C16.9906 47.4274 16.6557 47.1629 16.7054 46.8253L22.6915 6.15131C22.7411 5.81462 23.1362 5.65747 23.4034 5.86815L28.2089 9.65641C28.3342 9.75514 28.3966 9.91361 28.3724 10.0712L23.0398 44.777C23.016 44.9319 22.9121 45.0627 22.7665 45.1208Z" fill="white"/>
<path d="M36.4439 -4.66467L31.2043 -2.57227C30.8885 -2.44616 30.827 -2.0258 31.0934 -1.81445L52.4199 15.1046C52.5442 15.2032 52.7118 15.2278 52.8592 15.1689L58.0987 13.0765C58.4146 12.9504 58.4761 12.5301 58.2097 12.3187L36.8831 -4.60037C36.7588 -4.69899 36.5912 -4.72352 36.4439 -4.66467Z" fill="white"/>
<path d="M24.8213 -3.61007L18.9258 -1.25573C18.6088 -1.12916 18.5483 -0.706625 18.817 -0.496189L43.3608 18.725C43.4849 18.8222 43.6514 18.8461 43.7978 18.7876L49.2654 16.6041C49.58 16.4785 49.6427 16.0604 49.3787 15.8481L25.2628 -3.54395C25.1383 -3.64403 24.9696 -3.6693 24.8213 -3.61007Z" fill="white"/>
</svg>
