<svg width="59" height="48" viewBox="0 0 59 48" fill="none" xmlns="http://www.w3.org/2000/svg">
<path d="M23.4821 13.5766L24.4932 7.97713C24.555 7.635 24.2163 7.35847 23.8935 7.4874L-1.64455 17.6859C-1.79076 17.7443 -1.89494 17.8759 -1.91818 18.0316L-2.74263 23.5565C-2.79305 23.8944 -2.45795 24.1596 -2.14069 24.0329L23.2106 13.909C23.3524 13.8524 23.4549 13.7268 23.4821 13.5766Z" fill="white"/>
<path d="M27.3041 6.12545L32.5423 4.03358C32.8584 3.90734 33.1928 4.17027 33.1446 4.50724L28.7033 35.5977C28.6552 35.9345 28.2609 36.0934 27.9928 35.884L23.5856 32.444C23.4608 32.3465 23.3976 32.1899 23.4197 32.0331L27.0299 6.4746C27.0521 6.3175 27.1567 6.18429 27.3041 6.12545Z" fill="white"/>
<path d="M-10.6416 35.9476L-10.0038 30.4973C-9.98496 30.3359 -9.87923 30.1979 -9.72837 30.1377L22.2604 17.3631C22.5719 17.2387 22.9032 17.4924 22.8642 17.8256L22.2265 23.2759C22.2076 23.4373 22.1018 23.5753 21.951 23.6355L-10.0378 36.4101C-10.3493 36.5345 -10.6806 36.2808 -10.6416 35.9476Z" fill="white"/>
<path d="M36.1393 2.59721L41.5983 0.417163C41.9152 0.290615 42.2501 0.55509 42.2004 0.892676L36.2143 41.5667C36.1647 41.9034 35.7696 42.0605 35.5023 41.8499L30.6968 38.0616C30.5716 37.9629 30.5091 37.8044 30.5333 37.6468L35.8659 2.94105C35.8897 2.78613 35.9937 2.65534 36.1393 2.59721Z" fill="white"/>
<path d="M22.4619 52.3824L27.7015 50.29C28.0173 50.1639 28.0788 49.7436 27.8124 49.5322L6.48584 32.6131C6.36153 32.5145 6.19395 32.49 6.04659 32.5488L0.807021 34.6412C0.491207 34.7674 0.42967 35.1877 0.696081 35.3991L22.0226 52.3181C22.1469 52.4168 22.3145 52.4413 22.4619 52.3824Z" fill="white"/>
<path d="M34.0845 51.3278L39.98 48.9735C40.2969 48.8469 40.3574 48.4244 40.0887 48.214L15.545 28.9928C15.4209 28.8956 15.2544 28.8717 15.1079 28.9302L9.64033 31.1137C9.32572 31.2393 9.26311 31.6574 9.52711 31.8697L33.643 51.2617C33.7674 51.3618 33.9362 51.3871 34.0845 51.3278Z" fill="white"/>
</svg>
