<?xml version="1.0" encoding="UTF-8" standalone="no"?>
<svg
   width="68"
   height="67"
   viewBox="0 0 68 67"
   fill="none"
   version="1.1"
   id="svg3"
   sodipodi:docname="figma.svg"
   inkscape:version="1.3.1 (9b9bdc1480, 2023-11-25, custom)"
   xmlns:inkscape="http://www.inkscape.org/namespaces/inkscape"
   xmlns:sodipodi="http://sodipodi.sourceforge.net/DTD/sodipodi-0.dtd"
   xmlns="http://www.w3.org/2000/svg"
   xmlns:svg="http://www.w3.org/2000/svg">
  <sodipodi:namedview
     id="namedview3"
     pagecolor="#ffffff"
     bordercolor="#000000"
     borderopacity="0.25"
     inkscape:showpageshadow="2"
     inkscape:pageopacity="0.0"
     inkscape:pagecheckerboard="0"
     inkscape:deskcolor="#d1d1d1"
     showguides="true"
     inkscape:zoom="12.059701"
     inkscape:cx="33.997525"
     inkscape:cy="33.5"
     inkscape:window-width="1849"
     inkscape:window-height="1011"
     inkscape:window-x="71"
     inkscape:window-y="32"
     inkscape:window-maximized="1"
     inkscape:current-layer="svg3">
    <sodipodi:guide
       position="35.324257,34.163366"
       orientation="0,-1"
       id="guide3"
       inkscape:locked="false" />
    <sodipodi:guide
       position="35.270868,5.544837"
       orientation="1,0"
       id="guide4"
       inkscape:locked="false" />
  </sodipodi:namedview>
  <circle
     cx="34.223"
     cy="33.2991"
     r="31.747"
     stroke="url(#paint0_linear_518_910)"
     stroke-width="3.08224"
     id="circle1" />
  <circle
     cx="34.2231"
     cy="33.2992"
     r="26.5072"
     fill="#151515"
     id="circle2" />
  <path
     fill-rule="evenodd"
     clip-rule="evenodd"
     d="m 32.237186,30.655389 c -0.29275,0 -0.58262,0.05766 -0.85308,0.16969 -0.27046,0.11203 -0.5162,0.27623 -0.7232,0.48323 -0.207,0.207 -0.37121,0.45272 -0.48323,0.72322 -0.11203,0.2704 -0.16969,0.5603 -0.16969,0.8531 0,0.2927 0.05766,0.5826 0.16969,0.853 0.11202,0.2705 0.27623,0.5162 0.48323,0.7232 0.207,0.207 0.45274,0.3712 0.7232,0.4833 0.27046,0.112 0.56033,0.1697 0.85308,0.1697 h 2.22915 v -2.1844 c -3e-4,-0.0299 -3e-4,-0.0598 0,-0.0897 v -2.18434 z m 2.22915,-1.29454 h -2.22915 c -0.59134,0 -1.15845,-0.23491 -1.57659,-0.65304 -0.41814,-0.41814 -0.65304,-0.98525 -0.65304,-1.57659 0,-0.59133 0.2349,-1.15845 0.65304,-1.57658 0.41814,-0.41814 0.98525,-0.65305 1.57659,-0.65305 h 2.22915 z m 1.2946,-4.45926 v 4.45926 h 2.2292 c 0.5837,-0.01148 1.1397,-0.25144 1.5484,-0.66832 0.4088,-0.41689 0.6378,-0.97746 0.6378,-1.56131 0,-0.58385 -0.229,-1.14442 -0.6378,-1.5613 -0.4087,-0.41689 -0.9647,-0.65684 -1.5484,-0.66833 z m 2.2292,5.75294 c -0.5852,-8e-5 -1.1469,0.22992 -1.5639,0.64036 -0.4171,0.41044 -0.656,0.96834 -0.6653,1.55344 v 0.0716 c 0.0071,0.4393 0.1439,0.8667 0.3932,1.2285 0.2492,0.3618 0.5998,0.6419 1.0077,0.805 0.4079,0.1632 0.855,0.2022 1.285,0.1121 0.43,-0.09 0.8238,-0.3051 1.1319,-0.6183 0.3082,-0.3131 0.5169,-0.7104 0.6,-1.1418 0.0831,-0.4314 0.0369,-0.8777 -0.1328,-1.2829 -0.1697,-0.4053 -0.4554,-0.7513 -0.8212,-0.99469 -0.3658,-0.24338 -0.7953,-0.37325 -1.2346,-0.37331 z m -5.75295,5.7538 c -0.4411,-2e-4 -0.87235,0.1305 -1.23919,0.3754 -0.36685,0.2449 -0.65281,0.5932 -0.82174,1.0007 -0.16892,0.4074 -0.2132,0.8558 -0.12725,1.2885 0.08595,0.4326 0.29827,0.8301 0.61012,1.142 0.31184,0.312 0.7092,0.5245 1.14181,0.6106 0.43262,0.0861 0.88105,0.042 1.28859,-0.1268 0.40754,-0.1687 0.75588,-0.4545 1.00101,-0.8213 0.245,-0.3667 0.3758,-0.7979 0.3758,-1.239 v -2.2301 z"
     fill="#ffffff"
     id="path1" />
  <defs
     id="defs3">
    <linearGradient
       id="paint0_linear_518_910"
       x1="34.223"
       y1="-48.6884"
       x2="34.223"
       y2="107.889"
       gradientUnits="userSpaceOnUse">
      <stop
         stop-color="#505050"
         id="stop2" />
      <stop
         offset="1"
         stop-color="#505050"
         stop-opacity="0"
         id="stop3" />
    </linearGradient>
  </defs>
</svg>
