<svg width="16" height="11" viewBox="0 0 16 11" fill="none" xmlns="http://www.w3.org/2000/svg">
<path d="M5.84807 9.07105L5.44335 9.7186C5.30646 9.93762 5.46392 10.2217 5.7222 10.2217H11.4661C11.583 10.2217 11.6912 10.1596 11.7501 10.0586L12.1278 9.41102C12.2557 9.1918 12.0976 8.9165 11.8438 8.9165H6.12691C6.01354 8.9165 5.90816 8.97491 5.84807 9.07105Z" fill="white"/>
<path d="M4.34046 10.2213H3.57669C3.32382 10.2213 3.16558 9.94783 3.29163 9.72861L6.47775 4.18752C6.60374 3.96842 6.91951 3.96743 7.04685 4.18574L7.42636 4.83631C7.48562 4.93791 7.48611 5.06342 7.42764 5.16547L4.62578 10.056C4.56719 10.1583 4.45833 10.2213 4.34046 10.2213Z" fill="white"/>
<path d="M14.8724 7.4437L14.5216 8.09125C14.4642 8.19736 14.3532 8.26346 14.2325 8.26346H6.87728C6.62811 8.26346 6.46947 7.99711 6.58815 7.77801L6.9389 7.13047C6.99638 7.02435 7.10736 6.95825 7.22804 6.95825H14.5833C14.8324 6.95825 14.9911 7.2246 14.8724 7.4437Z" fill="white"/>
<path d="M2.16752 10.2215H1.3495C1.096 10.2215 0.93784 9.94673 1.06513 9.72751L5.38756 2.28331C5.51451 2.06468 5.83042 2.06512 5.95676 2.28411L6.3928 3.03991C6.452 3.14253 6.45143 3.26907 6.39129 3.37115L2.45084 10.0595C2.39173 10.1599 2.28397 10.2215 2.16752 10.2215Z" fill="white"/>
<path d="M9.28918 0.813232H8.52435C8.27171 0.813232 8.11344 1.08629 8.23901 1.30551L11.0709 6.24936C11.1295 6.35165 11.2384 6.41475 11.3563 6.41475H12.1211C12.3737 6.41475 12.532 6.14169 12.4064 5.92247L9.57451 0.978619C9.51592 0.876331 9.40706 0.813232 9.28918 0.813232Z" fill="white"/>
<path d="M6.73164 0.0517578H5.80924C5.55569 0.0517578 5.39753 0.326603 5.52494 0.545822L8.8408 6.25105C8.89966 6.35233 9.00796 6.41464 9.1251 6.41464H9.94997C10.2016 6.41464 10.36 6.14346 10.2364 5.92425L7.01804 0.219027C6.95974 0.115681 6.85029 0.0517578 6.73164 0.0517578Z" fill="white"/>
</svg>
